<svg width="807" height="472" viewBox="0 0 807 472" fill="none" xmlns="http://www.w3.org/2000/svg">
<path d="M99.032 222.592C92.888 220.8 88.6 219.008 86.168 217.216C83.864 215.424 82.712 213.184 82.712 210.496C82.712 208.448 83.288 205.568 84.44 201.856C85.592 198.144 87.256 193.792 89.432 188.8C91.736 183.68 94.424 178.048 97.496 171.904C100.696 165.76 104.28 159.168 108.248 152.128C104.92 152 101.912 151.936 99.224 151.936C96.664 151.808 94.552 151.744 92.888 151.744C93.656 149.824 95.832 148.16 99.416 146.752C103 145.344 107.736 144.128 113.624 143.104C118.616 134.784 123.928 126.848 129.56 119.296C135.32 111.744 141.08 104.832 146.84 98.56C152.6 92.16 158.36 86.592 164.12 81.856C169.88 76.992 175.384 73.152 180.632 70.336C180.76 69.44 180.824 68.672 180.824 68.032C180.952 67.392 181.016 66.944 181.016 66.688C182.808 66.688 185.176 67.136 188.12 68.032C191.192 68.928 194.136 70.016 196.952 71.296C199.896 72.576 202.456 73.92 204.632 75.328C206.936 76.608 208.216 77.696 208.472 78.592C204.248 86.016 200.088 97.152 195.992 112C191.896 126.72 188.504 144.384 185.816 164.992C185.176 170.112 184.6 175.936 184.088 182.464C183.704 188.992 183.512 196.288 183.512 204.352C183.512 207.168 183.512 210.048 183.512 212.992C183.512 215.936 183.64 219.008 183.896 222.208C183.64 222.336 183.384 222.4 183.128 222.4C182.872 222.4 182.36 222.4 181.592 222.4C179.8 222.4 177.688 222.08 175.256 221.44C172.952 220.928 170.648 220.224 168.344 219.328C166.168 218.56 164.248 217.664 162.584 216.64C161.048 215.616 160.088 214.72 159.704 213.952C159.576 212.288 159.512 210.624 159.512 208.96C159.512 207.424 159.512 205.76 159.512 203.968C159.512 196.032 159.768 187.968 160.28 179.776C160.92 171.584 161.944 163.136 163.352 154.432C161.56 154.304 159.192 154.176 156.248 154.048C153.304 153.792 149.976 153.6 146.264 153.472C142.68 153.344 138.776 153.216 134.552 153.088C130.456 152.832 126.424 152.64 122.456 152.512C119.384 158.272 116.504 164.032 113.816 169.792C111.128 175.424 108.824 181.12 106.904 186.88C104.728 193.024 102.936 199.168 101.528 205.312C100.248 211.456 99.416 217.216 99.032 222.592ZM173.144 107.2C173.656 105.408 174.232 102.976 174.872 99.904C175.64 96.704 176.344 93.376 176.984 89.92C173.784 91.072 170.2 93.184 166.232 96.256C162.392 99.328 158.36 103.168 154.136 107.776C150.04 112.256 145.816 117.376 141.464 123.136C137.24 128.768 133.144 134.784 129.176 141.184C139.928 140.288 152.152 139.712 165.848 139.456C166.872 134.08 167.96 128.768 169.112 123.52C170.392 118.144 171.736 112.704 173.144 107.2ZM238.666 114.88C241.994 115.904 245.13 118.208 248.074 121.792C251.018 125.248 253.194 129.088 254.602 133.312C253.194 136.768 251.018 140.928 248.074 145.792C245.13 150.656 242.186 155.648 239.242 160.768C236.298 165.76 233.61 170.56 231.178 175.168C228.874 179.648 227.53 183.36 227.146 186.304C229.194 184.128 231.434 181.632 233.866 178.816C236.426 175.872 238.858 172.992 241.162 170.176C243.594 167.232 245.834 164.608 247.882 162.304C249.93 159.872 251.53 158.08 252.682 156.928C255.114 154.368 257.994 151.424 261.322 148.096C264.65 144.64 268.106 141.44 271.69 138.496C275.402 135.424 279.114 132.864 282.826 130.816C286.538 128.64 289.93 127.552 293.002 127.552C296.33 127.552 299.082 128.704 301.258 131.008C303.562 133.184 305.354 135.488 306.634 137.92C306.634 138.176 306.122 138.56 305.098 139.072C304.202 139.456 302.858 140.672 301.066 142.72C299.274 145.024 297.226 148.224 294.922 152.32C292.746 156.288 290.57 160.64 288.394 165.376C286.346 169.984 284.618 174.72 283.21 179.584C281.802 184.448 281.098 188.864 281.098 192.832C281.098 196.032 281.482 198.08 282.25 198.976C283.146 199.872 284.362 200.32 285.897 200.32C287.306 200.32 288.778 200 290.313 199.36C291.85 198.72 293.066 198.4 293.962 198.4C294.474 198.656 294.858 199.232 295.114 200.128C295.498 200.896 295.69 201.6 295.69 202.24C294.666 203.136 293.45 204.032 292.042 204.928C290.634 205.824 289.162 206.656 287.625 207.424C286.09 208.192 284.554 208.832 283.018 209.344C281.61 209.856 280.33 210.112 279.178 210.112C275.466 210.112 272.394 209.536 269.962 208.384C267.658 207.36 265.802 205.952 264.394 204.16C263.114 202.368 262.218 200.256 261.706 197.824C261.194 195.264 260.938 192.576 260.938 189.76C260.938 188.224 261.066 186.496 261.322 184.576C261.578 182.656 262.09 180.416 262.858 177.856C263.626 175.168 264.714 172.032 266.122 168.448C267.53 164.736 269.322 160.32 271.498 155.2C271.242 155.2 269.514 156.096 266.314 157.888C263.114 159.68 259.658 162.432 255.946 166.144C249.93 171.904 244.49 177.6 239.625 183.232C234.89 188.864 230.026 195.136 225.034 202.048C222.218 206.016 219.722 209.344 217.546 212.032C215.498 214.848 213.706 216.704 212.17 217.6C209.482 216.064 207.498 213.888 206.218 211.072C204.938 208.384 203.978 205.568 203.338 202.624C203.338 200.192 203.658 197.12 204.298 193.408C205.066 189.696 206.026 185.6 207.178 181.12C208.458 176.512 209.994 171.712 211.786 166.72C213.578 161.728 215.562 156.736 217.738 151.744C222.602 140.48 227.018 131.648 230.986 125.248C235.082 118.848 237.642 115.392 238.666 114.88ZM363.473 203.776C361.041 201.728 359.377 199.168 358.481 196.096C357.713 193.024 357.329 190.4 357.329 188.224C357.329 185.536 357.649 183.232 358.289 181.312C357.777 181.312 356.625 182.336 354.833 184.384C353.041 186.432 351.057 188.864 348.881 191.68C346.833 194.496 344.785 197.248 342.737 199.936C340.689 202.624 339.153 204.608 338.129 205.888C336.465 207.68 334.865 209.088 333.329 210.112C331.921 211.136 330.769 211.712 329.873 211.84C327.825 211.712 325.649 211.264 323.345 210.496C321.169 209.856 319.057 208.896 317.009 207.616C315.089 206.336 313.361 204.8 311.825 203.008C310.417 201.216 309.457 199.168 308.945 196.864C308.945 193.28 309.009 190.336 309.137 188.032C309.393 185.728 309.841 183.232 310.481 180.544C311.633 175.68 313.297 170.176 315.473 164.032C317.777 157.888 320.401 151.872 323.345 145.984C326.289 139.968 329.553 134.4 333.137 129.28C336.849 124.032 340.753 119.936 344.849 116.992C346.001 116.992 347.345 117.12 348.881 117.376C350.417 117.504 351.953 117.824 353.489 118.336C355.153 118.848 356.689 119.488 358.097 120.256C359.633 120.896 360.913 121.792 361.937 122.944C360.785 124.224 357.841 128.512 353.105 135.808C348.497 143.104 343.313 153.6 337.553 167.296C336.913 168.704 336.145 170.752 335.249 173.44C334.353 176.128 333.457 178.944 332.561 181.888C331.665 184.832 330.897 187.712 330.257 190.528C329.745 193.344 329.489 195.584 329.489 197.248C329.489 198.272 329.617 199.04 329.873 199.552C330.257 200.064 330.577 200.448 330.833 200.704C332.753 199.936 335.185 197.824 338.129 194.368C341.073 190.912 345.169 185.6 350.417 178.432C351.697 176.64 353.169 174.592 354.833 172.288C356.625 169.984 358.417 167.552 360.209 164.992C362.001 162.304 363.665 159.552 365.201 156.736C366.865 153.92 368.209 151.104 369.233 148.288C369.745 146.752 370.385 144.96 371.153 142.912C372.049 140.736 373.073 138.496 374.225 136.192C375.505 133.888 376.913 131.584 378.449 129.28C380.113 126.848 382.033 124.608 384.209 122.56C385.873 122.56 387.665 122.752 389.585 123.136C391.505 123.52 393.297 124.032 394.961 124.672C396.753 125.184 398.289 125.824 399.569 126.592C400.849 127.232 401.809 127.936 402.449 128.704C400.145 134.336 397.585 139.904 394.769 145.408C391.953 150.912 389.329 156.352 386.897 161.728C384.465 166.976 382.417 172.224 380.753 177.472C379.089 182.72 378.257 187.84 378.257 192.832C378.257 195.52 378.449 197.888 378.833 199.936C379.345 201.856 379.857 203.52 380.369 204.928C380.881 206.208 381.329 207.296 381.713 208.192C382.225 209.088 382.481 209.856 382.481 210.496C382.481 210.624 382.353 210.816 382.097 211.072C381.969 211.2 381.841 211.264 381.713 211.264C380.817 211.264 379.665 211.072 378.257 210.688C376.849 210.304 375.249 209.728 373.457 208.96C371.793 208.32 370.065 207.552 368.273 206.656C366.609 205.76 365.009 204.8 363.473 203.776ZM423.038 209.344C428.926 205.376 434.686 200.32 440.318 194.176C445.95 187.904 451.07 181.184 455.678 174.016C460.286 166.72 464.19 159.168 467.39 151.36C470.59 143.552 472.766 136.064 473.918 128.896C473.918 127.36 473.086 126.336 471.422 125.824C469.63 125.824 467.134 127.424 463.934 130.624C460.862 133.696 457.406 137.664 453.566 142.528C449.854 147.392 446.014 152.832 442.046 158.848C438.206 164.864 434.686 170.88 431.486 176.896C428.286 182.784 425.534 188.352 423.23 193.6C421.054 198.72 419.838 202.88 419.582 206.08C418.302 206.08 417.214 204.8 416.318 202.24C416.062 201.6 415.614 200.96 414.974 200.32C414.334 199.552 413.31 198.656 411.902 197.632C411.262 197.12 410.622 196.544 409.982 195.904C409.342 195.136 408.894 194.496 408.638 193.984C408.126 192.96 407.87 191.296 407.87 188.992C407.87 181.44 408.83 172.928 410.75 163.456C412.67 153.984 415.166 144.32 418.238 134.464C421.438 124.608 425.15 114.944 429.374 105.472C433.598 95.872 437.95 87.104 442.43 79.168C447.038 71.232 451.646 64.512 456.254 59.008C460.862 53.504 465.214 49.856 469.31 48.064C470.59 48.448 472.126 49.088 473.918 49.984C475.71 50.88 477.502 51.904 479.294 53.056C481.086 54.208 482.75 55.36 484.286 56.512C485.95 57.664 487.166 58.688 487.934 59.584C473.854 70.976 461.63 85.632 451.262 103.552C441.022 121.344 432.638 142.4 426.11 166.72C429.694 160.064 433.726 153.664 438.206 147.52C442.686 141.248 447.102 135.744 451.454 131.008C455.934 126.272 460.158 122.496 464.126 119.68C468.222 116.864 471.614 115.456 474.302 115.456C476.35 115.968 478.334 116.864 480.254 118.144C482.174 119.424 483.902 121.024 485.438 122.944C486.974 124.736 488.254 126.72 489.278 128.896C490.302 130.944 490.942 133.12 491.198 135.424C491.07 140.8 490.11 146.56 488.318 152.704C486.654 158.72 484.35 164.672 481.406 170.56C478.59 176.448 475.326 182.08 471.614 187.456C468.03 192.832 464.19 197.568 460.094 201.664C456.126 205.632 452.094 208.832 447.998 211.264C444.03 213.696 440.254 214.912 436.67 214.912C435.134 214.912 433.534 214.72 431.87 214.336C430.334 214.08 428.862 213.632 427.454 212.992C426.174 212.48 425.086 211.904 424.19 211.264C423.422 210.624 423.038 209.984 423.038 209.344ZM495.745 204.736C495.745 200.256 496.193 195.008 497.089 188.992C497.985 182.848 499.265 176.32 500.929 169.408C502.721 162.496 504.769 155.264 507.073 147.712C509.505 140.16 512.193 132.608 515.137 125.056C517.697 118.272 520.641 111.424 523.969 104.512C527.425 97.6 531.137 90.816 535.105 84.16C539.073 77.504 543.169 71.168 547.393 65.152C551.745 59.136 556.097 53.632 560.449 48.64C562.497 48.64 564.673 48.896 566.977 49.408C569.409 49.92 571.713 50.624 573.889 51.52C576.193 52.288 578.241 53.248 580.033 54.4C581.953 55.552 583.489 56.704 584.641 57.856C575.041 67.712 566.401 77.696 558.721 87.808C551.041 97.792 544.961 107.2 540.481 116.032C538.049 120.896 535.809 125.44 533.76 129.664C531.841 133.888 530.049 138.112 528.385 142.336C526.721 146.432 525.185 150.592 523.777 154.816C522.497 158.912 521.281 163.264 520.129 167.872C544.705 136.512 562.945 120.832 574.849 120.832C578.177 120.832 581.761 121.92 585.601 124.096C589.441 126.272 592.833 129.216 595.777 132.928C591.809 137.28 587.713 142.528 583.489 148.672C579.265 154.816 575.361 161.024 571.777 167.296C568.321 173.44 565.441 179.2 563.137 184.576C560.961 189.824 559.873 193.728 559.873 196.288C559.873 197.568 560.065 198.464 560.449 198.976C560.833 199.36 561.665 199.552 562.945 199.552C564.865 199.552 566.401 199.296 567.553 198.784C568.705 198.272 569.409 198.016 569.665 198.016C570.305 199.04 570.689 199.744 570.817 200.128C570.945 200.512 571.009 200.832 571.009 201.088C571.009 201.6 570.241 202.368 568.705 203.392C567.169 204.288 565.313 205.248 563.137 206.272C561.089 207.168 559.041 208 556.993 208.768C554.945 209.536 553.409 209.92 552.385 209.92C551.105 209.92 549.825 209.536 548.545 208.768C547.265 208.128 546.113 207.232 545.089 206.08C544.193 204.928 543.425 203.648 542.785 202.24C542.273 200.832 542.017 199.36 542.017 197.824C542.017 195.904 542.529 193.088 543.553 189.376C544.705 185.536 546.241 181.12 548.161 176.128C550.081 171.008 552.385 165.44 555.073 159.424C557.761 153.408 560.641 147.264 563.713 140.992C563.713 140.48 563.457 140.224 562.945 140.224C562.561 140.224 561.537 140.736 559.873 141.76C558.337 142.784 556.865 143.808 555.457 144.832C550.849 148.288 546.177 152.576 541.441 157.696C536.833 162.688 532.289 168.192 527.809 174.208C523.457 180.224 519.297 186.624 515.329 193.408C511.489 200.064 508.161 206.784 505.345 213.568C504.961 214.464 504.385 215.296 503.617 216.064C502.849 216.832 502.209 217.216 501.697 217.216C501.313 217.216 500.737 216.768 499.969 215.872C499.329 214.976 498.689 213.824 498.049 212.416C497.537 211.136 497.025 209.792 496.513 208.384C496.001 206.976 495.745 205.76 495.745 204.736ZM661.364 130.432C662.644 130.432 664.116 130.688 665.78 131.2C667.572 131.584 669.172 132.16 670.58 132.928C671.988 133.568 673.14 134.272 674.036 135.04C675.06 135.808 675.572 136.512 675.572 137.152C673.012 142.528 670.644 147.968 668.468 153.472C666.292 158.848 664.436 164.032 662.9 169.024C661.364 174.016 660.148 178.688 659.252 183.04C658.484 187.392 658.1 191.168 658.1 194.368C658.1 197.952 658.484 200.96 659.252 203.392C660.02 205.696 661.3 207.36 663.092 208.384C661.556 209.408 659.572 210.24 657.14 210.88C654.708 211.52 652.532 211.84 650.612 211.84C643.7 211.84 640.244 207.104 640.244 197.632C640.244 190.336 642.676 180.352 647.54 167.68C644.98 173.568 642.036 179.136 638.708 184.384C635.38 189.504 631.988 194.048 628.532 198.016C625.076 201.984 621.556 205.248 617.972 207.808C614.516 210.24 611.316 211.712 608.372 212.224C603.636 211.968 599.796 209.728 596.852 205.504C593.908 201.152 592.436 195.648 592.436 188.992C592.436 181.824 593.972 174.272 597.044 166.336C600.116 158.4 604.02 151.04 608.756 144.256C613.62 137.472 618.868 131.84 624.5 127.36C630.132 122.752 635.572 120.32 640.82 120.064C642.1 120.448 643.508 121.216 645.044 122.368C646.708 123.52 648.244 124.864 649.652 126.4C651.188 127.936 652.468 129.536 653.492 131.2C654.516 132.736 655.092 134.08 655.22 135.232C650.1 136 644.788 138.496 639.284 142.72C633.908 146.944 628.98 152.064 624.5 158.08C620.148 163.968 616.564 170.304 613.748 177.088C610.932 183.872 609.524 190.208 609.524 196.096C609.524 198.528 610.42 200.064 612.212 200.704C615.924 199.936 620.212 196.8 625.076 191.296C629.94 185.664 635.828 177.024 642.74 165.376C644.02 163.072 645.428 160.512 646.964 157.696C648.628 154.88 650.292 151.936 651.956 148.864C653.62 145.792 655.22 142.72 656.756 139.648C658.42 136.448 659.956 133.376 661.364 130.432ZM693.622 140.032C693.622 137.728 693.75 135.552 694.006 133.504C694.39 131.456 695.094 129.728 696.118 128.32C697.142 126.784 698.55 125.632 700.342 124.864C702.134 123.968 704.502 123.52 707.446 123.52C709.238 123.52 711.222 123.712 713.398 124.096C715.702 124.48 717.366 125.184 718.39 126.208C717.878 128.384 717.43 130.304 717.046 131.968C716.79 133.632 716.534 135.488 716.278 137.536C716.15 139.456 716.022 141.824 715.894 144.64C715.766 147.328 715.638 150.848 715.51 155.2C715.253 163.904 714.806 171.712 714.166 178.624C713.654 185.408 712.374 192.192 710.326 198.976C710.326 199.488 710.518 199.744 710.902 199.744C712.822 198.336 714.998 196.288 717.43 193.6C719.862 190.912 722.422 187.904 725.11 184.576C727.798 181.12 730.486 177.472 733.174 173.632C735.862 169.792 738.358 166.016 740.662 162.304C743.734 156.928 747.126 150.208 750.838 142.144C754.55 134.08 757.622 125.44 760.054 116.224C760.822 116.224 761.782 116.416 762.934 116.8C764.214 117.056 765.43 117.44 766.582 117.952C767.862 118.336 768.95 118.784 769.846 119.296C770.87 119.808 771.574 120.256 771.958 120.64C771.702 126.144 770.358 131.776 767.926 137.536C765.622 143.296 762.806 148.864 759.478 154.24C756.15 159.616 752.63 164.672 748.918 169.408C745.206 174.144 741.814 178.24 738.742 181.696C732.598 188.864 726.39 195.264 720.118 200.896C713.974 206.528 706.614 211.968 698.038 217.216C694.71 215.936 692.086 214.208 690.166 212.032C688.246 209.984 687.286 207.808 687.286 205.504C687.286 203.968 687.606 202.24 688.246 200.32C689.014 198.272 689.846 195.712 690.742 192.64C691.638 189.44 692.406 185.472 693.046 180.736C693.814 176 694.198 169.984 694.198 162.688C694.198 158.464 694.07 154.24 693.814 150.016C693.686 145.664 693.622 142.336 693.622 140.032Z" fill="#110000"/>
<path d="M199.952 295.208C199.952 301.352 198.544 307.176 195.728 312.68C193.04 318.056 189.264 322.92 184.4 327.272C179.536 331.496 173.84 335.08 167.312 338.024C160.784 340.968 153.68 342.952 146 343.976C147.92 349.736 150.224 355.688 152.912 361.832C155.728 367.848 158.736 373.672 161.936 379.304C165.136 384.936 168.464 390.12 171.92 394.856C175.376 399.592 178.768 403.496 182.096 406.568C181.456 407.848 180.496 409.128 179.216 410.408C178.064 411.688 176.656 412.84 174.992 413.864C173.456 415.016 171.792 415.912 170 416.552C168.336 417.32 166.736 417.704 165.2 417.704C162.384 417.704 159.696 416.36 157.136 413.672C154.576 410.984 151.952 406.76 149.264 401C146.704 395.112 143.952 387.56 141.008 378.344C138.192 369 135.056 357.8 131.6 344.744C130.192 344.744 128.784 344.744 127.376 344.744C125.968 344.744 124.88 344.616 124.112 344.36C123.216 343.848 122.256 342.952 121.232 341.672C117.776 349.096 114.704 356.072 112.016 362.6C109.328 369.128 106.896 375.464 104.72 381.608C102.672 387.624 100.816 393.512 99.152 399.272C97.616 404.904 96.272 410.664 95.12 416.552C90.768 415.528 86.992 413.672 83.792 410.984C80.592 408.296 77.584 404.52 74.768 399.656C75.28 398.504 75.792 397.416 76.304 396.392C76.944 395.24 77.712 393.704 78.608 391.784C79.504 389.736 80.592 387.176 81.872 384.104C83.28 381.032 85.072 376.936 87.248 371.816C89.552 366.696 92.24 360.424 95.312 353C98.512 345.576 102.352 336.552 106.832 325.928C108.88 321.192 110.608 317.032 112.016 313.448C113.552 309.864 114.896 306.472 116.048 303.272C117.2 299.944 118.224 296.68 119.12 293.48C120.144 290.152 121.168 286.376 122.192 282.152C116.304 284.2 110.8 286.504 105.68 289.064C100.688 291.496 96.528 294.12 93.2 296.936C92.048 296.168 90.832 295.016 89.552 293.48C88.4 291.944 87.312 290.28 86.288 288.488C85.264 286.568 84.368 284.648 83.6 282.728C82.832 280.808 82.384 279.08 82.256 277.544C86.096 274.984 90.768 272.616 96.272 270.44C101.904 268.264 107.856 266.408 114.128 264.872C120.4 263.208 126.8 261.928 133.328 261.032C139.856 260.136 145.936 259.688 151.568 259.688C166.928 259.688 178.832 262.888 187.28 269.288C195.728 275.56 199.952 284.2 199.952 295.208ZM153.104 279.08C152.208 280.232 150.8 282.536 148.88 285.992C146.96 289.448 144.72 293.608 142.16 298.472C139.728 303.208 137.104 308.392 134.288 314.024C131.6 319.656 128.976 325.224 126.416 330.728C136.016 330.728 144.848 329.832 152.912 328.04C160.976 326.248 167.952 323.752 173.84 320.552C179.728 317.224 184.272 313.384 187.472 309.032C190.8 304.552 192.464 299.624 192.464 294.248C192.464 287.848 190.16 282.984 185.552 279.656C180.944 276.2 173.84 274.472 164.24 274.472C162.064 274.472 159.888 274.6 157.712 274.856C155.536 274.984 153.232 275.176 150.8 275.432L153.104 279.08ZM260.677 323.432C261.957 323.432 263.429 323.688 265.093 324.2C266.885 324.584 268.485 325.16 269.893 325.928C271.301 326.568 272.453 327.272 273.349 328.04C274.373 328.808 274.885 329.512 274.885 330.152C272.325 335.528 269.957 340.968 267.781 346.472C265.605 351.848 263.749 357.032 262.213 362.024C260.677 367.016 259.461 371.688 258.565 376.04C257.797 380.392 257.413 384.168 257.413 387.368C257.413 390.952 257.797 393.96 258.565 396.392C259.333 398.696 260.613 400.36 262.405 401.384C260.869 402.408 258.885 403.24 256.453 403.88C254.021 404.52 251.845 404.84 249.925 404.84C243.013 404.84 239.557 400.104 239.557 390.632C239.557 383.336 241.989 373.352 246.853 360.68C244.293 366.568 241.349 372.136 238.021 377.384C234.693 382.504 231.301 387.048 227.845 391.016C224.389 394.984 220.869 398.248 217.285 400.808C213.829 403.24 210.629 404.712 207.685 405.224C202.949 404.968 199.109 402.728 196.165 398.504C193.221 394.152 191.749 388.648 191.749 381.992C191.749 374.824 193.285 367.272 196.357 359.336C199.429 351.4 203.333 344.04 208.069 337.256C212.933 330.472 218.181 324.84 223.812 320.36C229.444 315.752 234.885 313.32 240.133 313.064C241.413 313.448 242.821 314.216 244.357 315.368C246.021 316.52 247.557 317.864 248.965 319.4C250.501 320.936 251.781 322.536 252.805 324.2C253.829 325.736 254.405 327.08 254.533 328.232C249.413 329 244.101 331.496 238.597 335.72C233.221 339.944 228.293 345.064 223.812 351.08C219.461 356.968 215.877 363.304 213.061 370.088C210.245 376.872 208.837 383.208 208.837 389.096C208.837 391.528 209.733 393.064 211.525 393.704C215.237 392.936 219.525 389.8 224.389 384.296C229.253 378.664 235.141 370.024 242.053 358.376C243.333 356.072 244.741 353.512 246.277 350.696C247.941 347.88 249.605 344.936 251.269 341.864C252.933 338.792 254.533 335.72 256.069 332.648C257.733 329.448 259.269 326.376 260.677 323.432ZM288.848 365.096C293.584 346.152 298.192 332.328 302.672 323.624C307.28 314.792 312.08 310.376 317.072 310.376C320.656 310.376 324.944 312.104 329.936 315.56C325.84 322.856 322.64 328.936 320.336 333.8C318.16 338.536 316.56 342.888 315.536 346.856C313.36 354.536 311.056 362.536 308.624 370.856C306.192 379.048 303.76 386.92 301.328 394.472C299.024 402.024 296.848 408.808 294.8 414.824C292.88 420.968 291.344 425.64 290.192 428.84C287.376 436.392 284.56 442.792 281.744 448.04C279.056 453.288 276.24 457.576 273.296 460.904C270.352 464.232 267.28 466.664 264.08 468.2C260.752 469.736 257.168 470.504 253.328 470.504C250.512 470.504 247.76 470.184 245.072 469.544C242.256 469.032 239.632 468.264 237.2 467.24C234.768 466.344 232.592 465.192 230.672 463.784C228.752 462.376 227.216 460.904 226.064 459.368C226.192 458.472 226.64 457.576 227.408 456.68C228.048 455.912 228.688 455.464 229.328 455.336C231.504 457.64 233.808 459.304 236.24 460.328C238.544 461.352 241.36 461.864 244.688 461.864C248.784 461.864 252.432 460.648 255.632 458.216C258.704 455.784 261.84 451.048 265.04 444.008C268.24 437.096 271.696 427.304 275.408 414.632C279.12 402.088 283.6 385.576 288.848 365.096ZM320.144 295.208C320.144 294.568 320.336 293.48 320.72 291.944C319.184 290.408 318.416 288.232 318.416 285.416C318.416 284.264 318.544 282.664 318.8 280.616C319.184 278.568 319.632 276.392 320.144 274.088C320.784 271.656 321.424 269.224 322.064 266.792C322.832 264.36 323.6 262.248 324.368 260.456C325.904 260.456 327.76 260.904 329.936 261.8C332.24 262.568 334.544 263.656 336.848 265.064C339.152 266.344 341.264 267.816 343.184 269.48C345.104 271.016 346.576 272.488 347.6 273.896C346.064 275.304 344.144 277.288 341.84 279.848C339.536 282.408 337.296 285.096 335.12 287.912C332.944 290.6 330.96 293.16 329.168 295.592C327.376 297.896 326.288 299.56 325.904 300.584C324.368 300.328 323.024 299.688 321.872 298.664C320.72 297.512 320.144 296.36 320.144 295.208Z" fill="#202632"/>
</svg>
