<svg width="807" height="472" viewBox="0 0 807 472" fill="none" xmlns="http://www.w3.org/2000/svg">
<path fill-rule="evenodd" clip-rule="evenodd" d="M465.636 194.542C459.403 211.519 456 229.862 456 249C456 336.261 526.739 407 614 407C701.261 407 772 336.261 772 249C772 219.256 763.781 191.431 749.49 167.673C749.3 167.919 749.109 168.164 748.918 168.408C745.206 173.144 741.814 177.24 738.742 180.696C732.598 187.864 726.389 194.264 720.117 199.896C713.974 205.528 706.613 210.968 698.038 216.216C694.71 214.936 692.085 213.208 690.165 211.032C688.245 208.984 687.286 206.808 687.286 204.504C687.286 202.968 687.605 201.24 688.245 199.32C689.014 197.272 689.846 194.712 690.742 191.64C691.637 188.44 692.406 184.472 693.046 179.736C693.814 175 694.197 168.984 694.197 161.688C694.197 157.464 694.07 153.24 693.814 149.016C693.686 144.664 693.622 141.336 693.622 139.032C693.622 136.728 693.749 134.552 694.006 132.504C694.389 130.456 695.094 128.728 696.118 127.32C697.141 125.784 698.549 124.632 700.342 123.864C702.133 122.968 704.501 122.52 707.445 122.52C707.87 122.52 708.306 122.531 708.752 122.552C682.353 102.739 649.548 91 614 91C589.264 91 565.855 96.6844 545.009 106.818C543.352 109.609 541.842 112.347 540.481 115.032C538.049 119.896 535.809 124.44 533.76 128.664C531.84 132.888 530.049 137.112 528.384 141.336C526.721 145.432 525.185 149.592 523.777 153.816C522.497 157.912 521.281 162.264 520.129 166.872C544.705 135.512 562.945 119.832 574.849 119.832C578.177 119.832 581.761 120.92 585.6 123.096C589.441 125.272 592.833 128.216 595.777 131.928C591.809 136.28 587.713 141.528 583.489 147.672C579.265 153.816 575.361 160.024 571.777 166.296C568.321 172.44 565.441 178.2 563.137 183.576C560.961 188.824 559.872 192.728 559.872 195.288C559.872 196.568 560.064 197.464 560.449 197.976C560.833 198.36 561.665 198.552 562.945 198.552C564.865 198.552 566.401 198.296 567.553 197.784C568.705 197.272 569.409 197.016 569.665 197.016C570.305 198.04 570.689 198.744 570.817 199.128C570.945 199.512 571.009 199.832 571.009 200.088C571.009 200.6 570.241 201.368 568.704 202.392C567.169 203.288 565.312 204.248 563.137 205.272C561.089 206.168 559.041 207 556.993 207.768C554.945 208.536 553.409 208.92 552.385 208.92C551.105 208.92 549.825 208.536 548.545 207.768C547.265 207.128 546.113 206.232 545.089 205.08C544.193 203.928 543.424 202.648 542.785 201.24C542.273 199.832 542.017 198.36 542.017 196.824C542.017 194.904 542.529 192.088 543.553 188.376C544.704 184.536 546.241 180.12 548.161 175.128C550.081 170.008 552.385 164.44 555.073 158.424C557.761 152.408 560.641 146.264 563.713 139.992C563.713 139.48 563.457 139.224 562.945 139.224C562.561 139.224 561.536 139.736 559.872 140.76C558.337 141.784 556.865 142.808 555.456 143.832C550.849 147.288 546.177 151.576 541.441 156.696C536.833 161.688 532.288 167.192 527.809 173.208C523.457 179.224 519.297 185.624 515.329 192.408C511.489 199.064 508.161 205.784 505.345 212.568C504.961 213.464 504.385 214.296 503.617 215.064C502.849 215.832 502.209 216.216 501.697 216.216C501.312 216.216 500.736 215.768 499.969 214.872C499.329 213.976 498.688 212.824 498.049 211.416C497.536 210.136 497.025 208.792 496.513 207.384C496 205.976 495.744 204.76 495.744 203.736C495.744 199.256 496.193 194.008 497.089 187.992C497.985 181.848 499.264 175.32 500.929 168.408C502.721 161.496 504.769 154.264 507.073 146.712C509.241 139.979 511.612 133.246 514.188 126.513C504.244 134.626 495.306 143.926 487.591 154.197C486.004 159.365 483.943 164.487 481.406 169.56C478.59 175.448 475.326 181.08 471.614 186.456C469.695 189.335 467.702 192.03 465.636 194.542ZM717.382 129.514C717.265 130.019 717.153 130.503 717.046 130.968C716.789 132.632 716.534 134.488 716.277 136.536C716.15 138.456 716.022 140.824 715.893 143.64C715.766 146.328 715.638 149.848 715.509 154.2C715.254 162.904 714.806 170.712 714.165 177.624C713.654 184.408 712.374 191.192 710.326 197.976C710.326 198.488 710.518 198.744 710.902 198.744C712.822 197.336 714.997 195.288 717.43 192.6C719.862 189.912 722.422 186.904 725.109 183.576C727.798 180.12 730.486 176.472 733.173 172.632C735.862 168.792 738.358 165.016 740.661 161.304C741.355 160.09 742.066 158.807 742.792 157.455C735.458 147.156 726.92 137.773 717.382 129.514ZM665.78 130.2C664.116 129.688 662.644 129.432 661.364 129.432C659.956 132.376 658.42 135.448 656.756 138.648C655.22 141.72 653.62 144.792 651.956 147.864C650.292 150.936 648.628 153.88 646.964 156.696C645.428 159.512 644.02 162.072 642.74 164.376C635.828 176.024 629.94 184.664 625.076 190.296C620.212 195.8 615.924 198.936 612.212 199.704C610.42 199.064 609.524 197.528 609.524 195.096C609.524 189.208 610.932 182.872 613.748 176.088C616.564 169.304 620.148 162.968 624.5 157.08C628.98 151.064 633.908 145.944 639.284 141.72C644.788 137.496 650.1 135 655.22 134.232C655.092 133.08 654.516 131.736 653.492 130.2C652.468 128.536 651.188 126.936 649.652 125.4C648.244 123.864 646.708 122.52 645.044 121.368C643.508 120.216 642.1 119.448 640.82 119.064C635.572 119.32 630.132 121.752 624.5 126.36C618.868 130.84 613.62 136.472 608.756 143.256C604.02 150.04 600.116 157.4 597.044 165.336C593.972 173.272 592.436 180.824 592.436 187.992C592.436 194.648 593.908 200.152 596.852 204.504C599.796 208.728 603.636 210.968 608.372 211.224C611.316 210.712 614.516 209.24 617.972 206.808C621.556 204.248 625.076 200.984 628.532 197.016C631.988 193.048 635.38 188.504 638.708 183.384C642.036 178.136 644.98 172.568 647.54 166.68C642.676 179.352 640.244 189.336 640.244 196.632C640.244 206.104 643.7 210.84 650.612 210.84C652.532 210.84 654.708 210.52 657.14 209.88C659.572 209.24 661.556 208.408 663.092 207.384C661.3 206.36 660.02 204.696 659.252 202.392C658.484 199.96 658.1 196.952 658.1 193.368C658.1 190.168 658.484 186.392 659.252 182.04C660.148 177.688 661.364 173.016 662.9 168.024C664.436 163.032 666.292 157.848 668.468 152.472C670.644 146.968 673.012 141.528 675.572 136.152C675.572 135.512 675.06 134.808 674.036 134.04C673.14 133.272 671.988 132.568 670.58 131.928C669.172 131.16 667.572 130.584 665.78 130.2Z" fill="#FE330A"/>
<path d="M199.952 295.208C199.952 301.352 198.544 307.176 195.728 312.68C193.04 318.056 189.264 322.92 184.4 327.272C179.536 331.496 173.84 335.08 167.312 338.024C160.784 340.968 153.68 342.952 146 343.976C147.92 349.736 150.224 355.688 152.912 361.832C155.728 367.848 158.736 373.672 161.936 379.304C165.136 384.936 168.464 390.12 171.92 394.856C175.376 399.592 178.768 403.496 182.096 406.568C181.456 407.848 180.496 409.128 179.216 410.408C178.064 411.688 176.656 412.84 174.992 413.864C173.456 415.016 171.792 415.912 170 416.552C168.336 417.32 166.736 417.704 165.2 417.704C162.384 417.704 159.696 416.36 157.136 413.672C154.576 410.984 151.952 406.76 149.264 401C146.704 395.112 143.952 387.56 141.008 378.344C138.192 369 135.056 357.8 131.6 344.744C130.192 344.744 128.784 344.744 127.376 344.744C125.968 344.744 124.88 344.616 124.112 344.36C123.216 343.848 122.256 342.952 121.232 341.672C117.776 349.096 114.704 356.072 112.016 362.6C109.328 369.128 106.896 375.464 104.72 381.608C102.672 387.624 100.816 393.512 99.152 399.272C97.616 404.904 96.272 410.664 95.12 416.552C90.768 415.528 86.992 413.672 83.792 410.984C80.592 408.296 77.584 404.52 74.768 399.656C75.28 398.504 75.792 397.416 76.304 396.392C76.944 395.24 77.712 393.704 78.608 391.784C79.504 389.736 80.592 387.176 81.872 384.104C83.28 381.032 85.072 376.936 87.248 371.816C89.552 366.696 92.24 360.424 95.312 353C98.512 345.576 102.352 336.552 106.832 325.928C108.88 321.192 110.608 317.032 112.016 313.448C113.552 309.864 114.896 306.472 116.048 303.272C117.2 299.944 118.224 296.68 119.12 293.48C120.144 290.152 121.168 286.376 122.192 282.152C116.304 284.2 110.8 286.504 105.68 289.064C100.688 291.496 96.528 294.12 93.2 296.936C92.048 296.168 90.832 295.016 89.552 293.48C88.4 291.944 87.312 290.28 86.288 288.488C85.264 286.568 84.368 284.648 83.6 282.728C82.832 280.808 82.384 279.08 82.256 277.544C86.096 274.984 90.768 272.616 96.272 270.44C101.904 268.264 107.856 266.408 114.128 264.872C120.4 263.208 126.8 261.928 133.328 261.032C139.856 260.136 145.936 259.688 151.568 259.688C166.928 259.688 178.832 262.888 187.28 269.288C195.728 275.56 199.952 284.2 199.952 295.208ZM153.104 279.08C152.208 280.232 150.8 282.536 148.88 285.992C146.96 289.448 144.72 293.608 142.16 298.472C139.728 303.208 137.104 308.392 134.288 314.024C131.6 319.656 128.976 325.224 126.416 330.728C136.016 330.728 144.848 329.832 152.912 328.04C160.976 326.248 167.952 323.752 173.84 320.552C179.728 317.224 184.272 313.384 187.472 309.032C190.8 304.552 192.464 299.624 192.464 294.248C192.464 287.848 190.16 282.984 185.552 279.656C180.944 276.2 173.84 274.472 164.24 274.472C162.064 274.472 159.888 274.6 157.712 274.856C155.536 274.984 153.232 275.176 150.8 275.432L153.104 279.08ZM260.677 323.432C261.957 323.432 263.429 323.688 265.093 324.2C266.885 324.584 268.485 325.16 269.893 325.928C271.301 326.568 272.453 327.272 273.349 328.04C274.373 328.808 274.885 329.512 274.885 330.152C272.325 335.528 269.957 340.968 267.781 346.472C265.605 351.848 263.749 357.032 262.213 362.024C260.677 367.016 259.461 371.688 258.565 376.04C257.797 380.392 257.413 384.168 257.413 387.368C257.413 390.952 257.797 393.96 258.565 396.392C259.333 398.696 260.613 400.36 262.405 401.384C260.869 402.408 258.885 403.24 256.453 403.88C254.021 404.52 251.845 404.84 249.925 404.84C243.013 404.84 239.557 400.104 239.557 390.632C239.557 383.336 241.989 373.352 246.853 360.68C244.293 366.568 241.349 372.136 238.021 377.384C234.693 382.504 231.301 387.048 227.845 391.016C224.389 394.984 220.869 398.248 217.285 400.808C213.829 403.24 210.629 404.712 207.685 405.224C202.949 404.968 199.109 402.728 196.165 398.504C193.221 394.152 191.749 388.648 191.749 381.992C191.749 374.824 193.285 367.272 196.357 359.336C199.429 351.4 203.333 344.04 208.069 337.256C212.933 330.472 218.181 324.84 223.812 320.36C229.444 315.752 234.885 313.32 240.133 313.064C241.413 313.448 242.821 314.216 244.357 315.368C246.021 316.52 247.557 317.864 248.965 319.4C250.501 320.936 251.781 322.536 252.805 324.2C253.829 325.736 254.405 327.08 254.533 328.232C249.413 329 244.101 331.496 238.597 335.72C233.221 339.944 228.293 345.064 223.812 351.08C219.461 356.968 215.877 363.304 213.061 370.088C210.245 376.872 208.837 383.208 208.837 389.096C208.837 391.528 209.733 393.064 211.525 393.704C215.237 392.936 219.525 389.8 224.389 384.296C229.253 378.664 235.141 370.024 242.053 358.376C243.333 356.072 244.741 353.512 246.277 350.696C247.941 347.88 249.605 344.936 251.269 341.864C252.933 338.792 254.533 335.72 256.069 332.648C257.733 329.448 259.269 326.376 260.677 323.432ZM288.848 365.096C293.584 346.152 298.192 332.328 302.672 323.624C307.28 314.792 312.08 310.376 317.072 310.376C320.656 310.376 324.944 312.104 329.936 315.56C325.84 322.856 322.64 328.936 320.336 333.8C318.16 338.536 316.56 342.888 315.536 346.856C313.36 354.536 311.056 362.536 308.624 370.856C306.192 379.048 303.76 386.92 301.328 394.472C299.024 402.024 296.848 408.808 294.8 414.824C292.88 420.968 291.344 425.64 290.192 428.84C287.376 436.392 284.56 442.792 281.744 448.04C279.056 453.288 276.24 457.576 273.296 460.904C270.352 464.232 267.28 466.664 264.08 468.2C260.752 469.736 257.168 470.504 253.328 470.504C250.512 470.504 247.76 470.184 245.072 469.544C242.256 469.032 239.632 468.264 237.2 467.24C234.768 466.344 232.592 465.192 230.672 463.784C228.752 462.376 227.216 460.904 226.064 459.368C226.192 458.472 226.64 457.576 227.408 456.68C228.048 455.912 228.688 455.464 229.328 455.336C231.504 457.64 233.808 459.304 236.24 460.328C238.544 461.352 241.36 461.864 244.688 461.864C248.784 461.864 252.432 460.648 255.632 458.216C258.704 455.784 261.84 451.048 265.04 444.008C268.24 437.096 271.696 427.304 275.408 414.632C279.12 402.088 283.6 385.576 288.848 365.096ZM320.144 295.208C320.144 294.568 320.336 293.48 320.72 291.944C319.184 290.408 318.416 288.232 318.416 285.416C318.416 284.264 318.544 282.664 318.8 280.616C319.184 278.568 319.632 276.392 320.144 274.088C320.784 271.656 321.424 269.224 322.064 266.792C322.832 264.36 323.6 262.248 324.368 260.456C325.904 260.456 327.76 260.904 329.936 261.8C332.24 262.568 334.544 263.656 336.848 265.064C339.152 266.344 341.264 267.816 343.184 269.48C345.104 271.016 346.576 272.488 347.6 273.896C346.064 275.304 344.144 277.288 341.84 279.848C339.536 282.408 337.296 285.096 335.12 287.912C332.944 290.6 330.96 293.16 329.168 295.592C327.376 297.896 326.288 299.56 325.904 300.584C324.368 300.328 323.024 299.688 321.872 298.664C320.72 297.512 320.144 296.36 320.144 295.208Z" fill="#1B1C1D"/>
<path fill-rule="evenodd" clip-rule="evenodd" d="M86.1679 217.216C88.5999 219.008 92.8879 220.8 99.0319 222.592C99.4159 217.216 100.248 211.456 101.528 205.312C102.936 199.168 104.728 193.024 106.904 186.88C108.824 181.12 111.128 175.424 113.816 169.792C116.504 164.032 119.384 158.272 122.456 152.512C126.424 152.64 130.456 152.832 134.552 153.088C138.776 153.216 142.68 153.344 146.264 153.472C149.976 153.6 153.304 153.792 156.248 154.048C159.192 154.176 161.56 154.304 163.352 154.432C161.944 163.136 160.92 171.584 160.28 179.776C159.768 187.968 159.512 196.032 159.512 203.968V208.96C159.512 210.624 159.576 212.288 159.704 213.952C160.088 214.72 161.048 215.616 162.584 216.64C164.248 217.664 166.168 218.56 168.344 219.328C170.648 220.224 172.952 220.928 175.256 221.44C177.688 222.08 179.8 222.4 181.592 222.4H183.128C183.384 222.4 183.64 222.336 183.896 222.208C183.64 219.008 183.512 215.936 183.512 212.992V204.352C183.512 196.288 183.704 188.992 184.088 182.464C184.6 175.936 185.176 170.112 185.816 164.992C188.504 144.384 191.896 126.72 195.992 112C200.088 97.152 204.248 86.016 208.472 78.592C208.216 77.696 206.936 76.608 204.632 75.328C202.456 73.92 199.896 72.576 196.952 71.296C194.136 70.016 191.192 68.928 188.12 68.032C185.176 67.136 182.808 66.688 181.016 66.688C181.016 66.944 180.952 67.392 180.824 68.032C180.824 68.672 180.76 69.44 180.632 70.336C175.384 73.152 169.88 76.992 164.12 81.856C158.36 86.592 152.6 92.16 146.84 98.56C141.08 104.832 135.32 111.744 129.56 119.296C123.928 126.848 118.616 134.784 113.624 143.104C107.736 144.128 103 145.344 99.4159 146.752C95.8319 148.16 93.6559 149.824 92.8879 151.744C94.5519 151.744 96.6639 151.808 99.2239 151.936C101.912 151.936 104.92 152 108.248 152.128C104.28 159.168 100.696 165.76 97.4959 171.904C94.4239 178.048 91.7359 183.68 89.4319 188.8C87.2559 193.792 85.5919 198.144 84.4399 201.856C83.2879 205.568 82.7119 208.448 82.7119 210.496C82.7119 213.184 83.8639 215.424 86.1679 217.216ZM174.872 99.904C174.232 102.976 173.656 105.408 173.144 107.2C171.736 112.704 170.392 118.144 169.112 123.52C167.96 128.768 166.872 134.08 165.848 139.456C152.152 139.712 139.928 140.288 129.176 141.184C133.144 134.784 137.24 128.768 141.464 123.136C145.816 117.376 150.04 112.256 154.136 107.776C158.36 103.168 162.392 99.328 166.232 96.256C170.2 93.184 173.784 91.072 176.984 89.92C176.344 93.376 175.64 96.704 174.872 99.904ZM248.073 121.792C245.129 118.208 241.993 115.904 238.665 114.88C237.641 115.392 235.081 118.848 230.985 125.248C227.017 131.648 222.601 140.48 217.737 151.744C215.561 156.736 213.577 161.728 211.785 166.72C209.993 171.712 208.457 176.512 207.177 181.12C206.025 185.6 205.065 189.696 204.297 193.408C203.657 197.12 203.337 200.192 203.337 202.624C203.977 205.568 204.937 208.384 206.217 211.072C207.497 213.888 209.481 216.064 212.169 217.6C213.705 216.704 215.497 214.848 217.545 212.032C219.721 209.344 222.217 206.016 225.033 202.048C230.025 195.136 234.889 188.864 239.625 183.232C244.489 177.6 249.929 171.904 255.945 166.144C259.657 162.432 263.113 159.68 266.313 157.888C269.513 156.096 271.241 155.2 271.497 155.2C269.321 160.32 267.529 164.736 266.121 168.448C264.713 172.032 263.625 175.168 262.857 177.856C262.089 180.416 261.577 182.656 261.321 184.576C261.065 186.496 260.937 188.224 260.937 189.76C260.937 192.576 261.193 195.264 261.705 197.824C262.217 200.256 263.113 202.368 264.393 204.16C265.801 205.952 267.657 207.36 269.961 208.384C272.393 209.536 275.465 210.112 279.177 210.112C280.329 210.112 281.609 209.856 283.017 209.344C284.553 208.832 286.089 208.192 287.625 207.424C289.161 206.656 290.633 205.824 292.041 204.928C293.449 204.032 294.665 203.136 295.689 202.24C295.689 201.6 295.497 200.896 295.113 200.128C294.857 199.232 294.473 198.656 293.961 198.4C293.065 198.4 291.849 198.72 290.313 199.36C288.777 200 287.305 200.32 285.897 200.32C284.361 200.32 283.145 199.872 282.249 198.976C281.481 198.08 281.097 196.032 281.097 192.832C281.097 188.864 281.801 184.448 283.209 179.584C284.617 174.72 286.345 169.984 288.393 165.376C290.569 160.64 292.745 156.288 294.921 152.32C297.225 148.224 299.273 145.024 301.065 142.72C302.857 140.672 304.201 139.456 305.097 139.072C306.121 138.56 306.633 138.176 306.633 137.92C305.353 135.488 303.561 133.184 301.257 131.008C299.081 128.704 296.329 127.552 293.001 127.552C289.929 127.552 286.537 128.64 282.825 130.816C279.113 132.864 275.401 135.424 271.689 138.496C268.105 141.44 264.649 144.64 261.321 148.096C257.993 151.424 255.113 154.368 252.681 156.928C251.529 158.08 249.929 159.872 247.881 162.304C245.833 164.608 243.593 167.232 241.161 170.176C238.857 172.992 236.425 175.872 233.865 178.816C231.433 181.632 229.193 184.128 227.145 186.304C227.529 183.36 228.873 179.648 231.177 175.168C233.609 170.56 236.297 165.76 239.241 160.768C242.185 155.648 245.129 150.656 248.073 145.792C251.017 140.928 253.193 136.768 254.601 133.312C253.193 129.088 251.017 125.248 248.073 121.792ZM357.329 188.224C357.329 190.4 357.713 193.024 358.481 196.096C359.377 199.168 361.041 201.728 363.473 203.776C365.009 204.8 366.609 205.76 368.273 206.656C370.065 207.552 371.793 208.32 373.457 208.96C375.249 209.728 376.849 210.304 378.257 210.688C379.665 211.072 380.817 211.264 381.713 211.264C381.841 211.264 381.969 211.2 382.097 211.072C382.353 210.816 382.481 210.624 382.481 210.496C382.481 209.856 382.225 209.088 381.713 208.192C381.329 207.296 380.881 206.208 380.369 204.928C379.857 203.52 379.345 201.856 378.833 199.936C378.449 197.888 378.257 195.52 378.257 192.832C378.257 187.84 379.089 182.72 380.753 177.472C382.417 172.224 384.465 166.976 386.897 161.728C389.329 156.352 391.953 150.912 394.769 145.408C397.585 139.904 400.145 134.336 402.449 128.704C401.809 127.936 400.849 127.232 399.569 126.592C398.289 125.824 396.753 125.184 394.961 124.672C393.297 124.032 391.505 123.52 389.585 123.136C387.665 122.752 385.873 122.56 384.209 122.56C382.033 124.608 380.113 126.848 378.449 129.28C376.913 131.584 375.505 133.888 374.225 136.192C373.073 138.496 372.049 140.736 371.153 142.912C370.385 144.96 369.745 146.752 369.233 148.288C368.209 151.104 366.865 153.92 365.201 156.736C363.665 159.552 362.001 162.304 360.209 164.992C358.417 167.552 356.625 169.984 354.833 172.288C353.169 174.592 351.697 176.64 350.417 178.432C345.169 185.6 341.073 190.912 338.129 194.368C335.185 197.824 332.753 199.936 330.833 200.704C330.577 200.448 330.257 200.064 329.873 199.552C329.617 199.04 329.489 198.272 329.489 197.248C329.489 195.584 329.745 193.344 330.257 190.528C330.897 187.712 331.665 184.832 332.561 181.888C333.457 178.944 334.353 176.128 335.249 173.44C336.145 170.752 336.913 168.704 337.553 167.296C343.313 153.6 348.497 143.104 353.105 135.808C357.841 128.512 360.785 124.224 361.937 122.944C360.913 121.792 359.633 120.896 358.097 120.256C356.689 119.488 355.153 118.848 353.489 118.336C351.953 117.824 350.417 117.504 348.881 117.376C347.345 117.12 346.001 116.992 344.849 116.992C340.753 119.936 336.849 124.032 333.137 129.28C329.553 134.4 326.289 139.968 323.345 145.984C320.401 151.872 317.777 157.888 315.473 164.032C313.297 170.176 311.633 175.68 310.481 180.544C309.841 183.232 309.393 185.728 309.137 188.032C309.009 190.336 308.945 193.28 308.945 196.864C309.457 199.168 310.417 201.216 311.825 203.008C313.361 204.8 315.089 206.336 317.009 207.616C319.057 208.896 321.169 209.856 323.345 210.496C325.649 211.264 327.825 211.712 329.873 211.84C330.769 211.712 331.921 211.136 333.329 210.112C334.865 209.088 336.465 207.68 338.129 205.888C339.153 204.608 340.689 202.624 342.737 199.936C344.785 197.248 346.833 194.496 348.881 191.68C351.057 188.864 353.041 186.432 354.833 184.384C356.625 182.336 357.777 181.312 358.289 181.312C357.649 183.232 357.329 185.536 357.329 188.224ZM440.318 194.176C434.686 200.32 428.926 205.376 423.038 209.344C423.038 209.984 423.422 210.624 424.19 211.264C425.086 211.904 426.174 212.48 427.454 212.992C428.862 213.632 430.334 214.08 431.87 214.336C433.534 214.72 435.134 214.912 436.67 214.912C440.254 214.912 444.03 213.696 447.998 211.264C452.094 208.832 456.126 205.632 460.094 201.664C461.772 199.986 463.408 198.2 465 196.307C459.172 212.787 456 230.523 456 249C456 336.261 526.739 407 614 407C701.261 407 772 336.261 772 249C772 219.49 763.91 191.87 749.827 168.236C753.206 163.84 756.422 159.175 759.477 154.24C762.805 148.864 765.621 143.296 767.925 137.536C770.357 131.776 771.701 126.144 771.957 120.64C771.573 120.256 770.869 119.808 769.845 119.296C768.949 118.784 767.861 118.336 766.581 117.952C765.429 117.44 764.213 117.056 762.933 116.8C761.781 116.416 760.821 116.224 760.053 116.224C757.621 125.44 754.549 134.08 750.837 142.144C748.081 148.132 745.501 153.379 743.097 157.885C735.745 147.486 727.168 138.015 717.576 129.682C717.826 128.607 718.097 127.449 718.389 126.208C717.365 125.184 715.701 124.48 713.397 124.096C712.283 123.899 711.22 123.753 710.206 123.657C683.563 103.176 650.203 91 614 91C589.598 91 566.488 96.5319 545.855 106.41C549.478 100.449 553.766 94.2483 558.72 87.808C566.4 77.696 575.04 67.712 584.64 57.856C583.488 56.704 581.952 55.552 580.032 54.4C578.24 53.248 576.192 52.288 573.888 51.52C571.712 50.624 569.408 49.92 566.976 49.408C564.672 48.896 562.496 48.64 560.448 48.64C556.096 53.632 551.744 59.136 547.392 65.152C543.168 71.168 539.072 77.504 535.104 84.16C531.136 90.816 527.424 97.6 523.968 104.512C520.64 111.424 517.696 118.272 515.136 125.056C515.006 125.39 514.876 125.725 514.747 126.059C504.789 134.109 495.828 143.344 488.08 153.549C488.161 153.268 488.24 152.986 488.318 152.704C490.11 146.56 491.07 140.8 491.198 135.424C490.942 133.12 490.302 130.944 489.278 128.896C488.254 126.72 486.974 124.736 485.438 122.944C483.902 121.024 482.174 119.424 480.254 118.144C478.334 116.864 476.35 115.968 474.302 115.456C471.614 115.456 468.222 116.864 464.126 119.68C460.158 122.496 455.934 126.272 451.454 131.008C447.102 135.744 442.686 141.248 438.206 147.52C433.726 153.664 429.694 160.064 426.11 166.72C432.638 142.4 441.022 121.344 451.262 103.552C461.63 85.632 473.854 70.976 487.934 59.584C487.166 58.688 485.95 57.664 484.286 56.512C482.75 55.36 481.086 54.208 479.294 53.056C477.502 51.904 475.71 50.88 473.918 49.984C472.126 49.088 470.59 48.448 469.31 48.064C465.214 49.856 460.862 53.504 456.254 59.008C451.646 64.512 447.038 71.232 442.43 79.168C437.95 87.104 433.598 95.872 429.374 105.472C425.15 114.944 421.438 124.608 418.238 134.464C415.166 144.32 412.67 153.984 410.75 163.456C408.83 172.928 407.87 181.44 407.87 188.992C407.87 191.296 408.126 192.96 408.638 193.984C408.894 194.496 409.342 195.136 409.982 195.904C410.622 196.544 411.262 197.12 411.902 197.632C413.31 198.656 414.334 199.552 414.974 200.32C415.614 200.96 416.062 201.6 416.318 202.24C417.214 204.8 418.302 206.08 419.582 206.08C419.838 202.88 421.054 198.72 423.23 193.6C425.534 188.352 428.286 182.784 431.486 176.896C434.686 170.88 438.206 164.864 442.046 158.848C446.014 152.832 449.854 147.392 453.566 142.528C457.406 137.664 460.862 133.696 463.934 130.624C467.134 127.424 469.63 125.824 471.422 125.824C473.086 126.336 473.918 127.36 473.918 128.896C472.766 136.064 470.59 143.552 467.39 151.36C464.19 159.168 460.286 166.72 455.678 174.016C451.07 181.184 445.95 187.904 440.318 194.176ZM514.747 126.059C511.955 133.277 509.397 140.494 507.072 147.712C504.768 155.264 502.72 162.496 500.928 169.408C499.264 176.32 497.984 182.848 497.088 188.992C496.192 195.008 495.744 200.256 495.744 204.736C495.744 205.76 496 206.976 496.512 208.384C497.024 209.792 497.536 211.136 498.048 212.416C498.688 213.824 499.328 214.976 499.968 215.872C500.736 216.768 501.312 217.216 501.696 217.216C502.208 217.216 502.848 216.832 503.616 216.064C504.384 215.296 504.96 214.464 505.344 213.568C508.16 206.784 511.488 200.064 515.328 193.408C519.296 186.624 523.456 180.224 527.808 174.208C532.288 168.192 536.832 162.688 541.44 157.696C546.176 152.576 550.848 148.288 555.456 144.832C556.864 143.808 558.336 142.784 559.872 141.76C561.536 140.736 562.56 140.224 562.944 140.224C563.456 140.224 563.712 140.48 563.712 140.992C560.64 147.264 557.76 153.408 555.072 159.424C552.384 165.44 550.08 171.008 548.16 176.128C546.24 181.12 544.704 185.536 543.552 189.376C542.528 193.088 542.016 195.904 542.016 197.824C542.016 199.36 542.272 200.832 542.784 202.24C543.424 203.648 544.192 204.928 545.088 206.08C546.112 207.232 547.264 208.128 548.544 208.768C549.824 209.536 551.104 209.92 552.384 209.92C553.408 209.92 554.944 209.536 556.992 208.768C559.04 208 561.088 207.168 563.136 206.272C565.312 205.248 567.168 204.288 568.704 203.392C570.24 202.368 571.008 201.6 571.008 201.088C571.008 200.832 570.944 200.512 570.816 200.128C570.688 199.744 570.304 199.04 569.664 198.016C569.408 198.016 568.704 198.272 567.552 198.784C566.4 199.296 564.864 199.552 562.944 199.552C561.664 199.552 560.832 199.36 560.448 198.976C560.064 198.464 559.872 197.568 559.872 196.288C559.872 193.728 560.96 189.824 563.136 184.576C565.44 179.2 568.32 173.44 571.776 167.296C575.36 161.024 579.264 154.816 583.488 148.672C587.712 142.528 591.808 137.28 595.776 132.928C592.832 129.216 589.44 126.272 585.6 124.096C581.76 121.92 578.176 120.832 574.848 120.832C562.944 120.832 544.704 136.512 520.128 167.872C521.28 163.264 522.496 158.912 523.776 154.816C525.184 150.592 526.72 146.432 528.384 142.336C530.048 138.112 531.84 133.888 533.76 129.664C535.808 125.44 538.048 120.896 540.48 116.032C542.07 112.897 543.862 109.69 545.855 106.41C534.699 111.751 524.267 118.363 514.747 126.059ZM710.206 123.657C709.24 123.566 708.32 123.52 707.445 123.52C704.501 123.52 702.133 123.968 700.341 124.864C698.549 125.632 697.141 126.784 696.117 128.32C695.093 129.728 694.389 131.456 694.005 133.504C693.749 135.552 693.621 137.728 693.621 140.032C693.621 142.336 693.685 145.664 693.813 150.016C694.069 154.24 694.197 158.464 694.197 162.688C694.197 169.984 693.813 176 693.045 180.736C692.405 185.472 691.637 189.44 690.741 192.64C689.845 195.712 689.013 198.272 688.245 200.32C687.605 202.24 687.285 203.968 687.285 205.504C687.285 207.808 688.245 209.984 690.165 212.032C692.085 214.208 694.709 215.936 698.037 217.216C706.613 211.968 713.973 206.528 720.117 200.896C726.389 195.264 732.597 188.864 738.741 181.696C741.813 178.24 745.205 174.144 748.917 169.408C749.222 169.02 749.525 168.629 749.827 168.236C747.716 164.694 745.471 161.241 743.097 157.885C742.264 159.447 741.452 160.92 740.661 162.304C738.357 166.016 735.861 169.792 733.173 173.632C730.485 177.472 727.797 181.12 725.109 184.576C722.421 187.904 719.861 190.912 717.429 193.6C714.997 196.288 712.821 198.336 710.901 199.744C710.517 199.744 710.325 199.488 710.325 198.976C712.373 192.192 713.653 185.408 714.165 178.624C714.805 171.712 715.253 163.904 715.509 155.2C715.637 150.848 715.765 147.328 715.893 144.64C716.021 141.824 716.149 139.456 716.277 137.536C716.533 135.488 716.789 133.632 717.045 131.968C717.21 131.253 717.387 130.491 717.576 129.682C715.181 127.602 712.724 125.592 710.206 123.657ZM488.08 153.549C486.437 159.278 484.212 164.948 481.406 170.56C478.59 176.448 475.326 182.08 471.614 187.456C469.498 190.629 467.294 193.579 465 196.307C470.484 180.8 478.32 166.404 488.08 153.549ZM665.78 131.2C664.116 130.688 662.644 130.432 661.364 130.432C659.956 133.376 658.42 136.448 656.756 139.648C655.22 142.72 653.62 145.792 651.956 148.864C650.292 151.936 648.628 154.88 646.964 157.696C645.428 160.512 644.02 163.072 642.74 165.376C635.828 177.024 629.94 185.664 625.076 191.296C620.212 196.8 615.924 199.936 612.212 200.704C610.42 200.064 609.524 198.528 609.524 196.096C609.524 190.208 610.932 183.872 613.748 177.088C616.564 170.304 620.148 163.968 624.5 158.08C628.98 152.064 633.908 146.944 639.284 142.72C644.788 138.496 650.1 136 655.22 135.232C655.092 134.08 654.516 132.736 653.492 131.2C652.468 129.536 651.188 127.936 649.652 126.4C648.244 124.864 646.708 123.52 645.044 122.368C643.508 121.216 642.1 120.448 640.82 120.064C635.572 120.32 630.132 122.752 624.5 127.36C618.868 131.84 613.62 137.472 608.756 144.256C604.02 151.04 600.116 158.4 597.044 166.336C593.972 174.272 592.436 181.824 592.436 188.992C592.436 195.648 593.908 201.152 596.852 205.504C599.796 209.728 603.636 211.968 608.372 212.224C611.316 211.712 614.516 210.24 617.972 207.808C621.556 205.248 625.076 201.984 628.532 198.016C631.988 194.048 635.38 189.504 638.708 184.384C642.036 179.136 644.98 173.568 647.54 167.68C642.676 180.352 640.244 190.336 640.244 197.632C640.244 207.104 643.7 211.84 650.612 211.84C652.532 211.84 654.708 211.52 657.14 210.88C659.572 210.24 661.556 209.408 663.092 208.384C661.3 207.36 660.02 205.696 659.252 203.392C658.484 200.96 658.1 197.952 658.1 194.368C658.1 191.168 658.484 187.392 659.252 183.04C660.148 178.688 661.364 174.016 662.9 169.024C664.436 164.032 666.292 158.848 668.468 153.472C670.644 147.968 673.012 142.528 675.572 137.152C675.572 136.512 675.06 135.808 674.036 135.04C673.14 134.272 671.988 133.568 670.58 132.928C669.172 132.16 667.572 131.584 665.78 131.2Z" fill="#FE330A"/>
</svg>
